# ProBuilder 4.0.5
# https://unity3d.com/unity/features/worldbuilding/probuilder
# 1/5/2021 1:28:34 a. m.

mtllib ./ArmorPickupModel.mtl
o ArmorPickupModel

g Cube
v 1.101782 0.08488846 -0.01204681
v 1.101782 0 -0.116436
v 1.101782 1 0
v 1.101782 1 -0.116436
v -0.1017823 0 -0.116436
v -0.1017828 0.08488846 -0.01204681
v -0.1017823 1 -0.116436
v -0.1017823 1 0
v 0.9999995 0.01124191 -0.08270264
v 1 -0.07364655 -0.1870918
v 1 1.000001 -0.07065582
v 1 1.000001 -0.1870918
v 0.9198017 1.175074 -0.1770058
v 0.9200523 1.204445 -0.07951736
v 1.100776 1.253174 -0.1152229
v 1.101027 1.282545 3.814697E-06
v 0 -0.07364655 -0.1870918
v -4.768372E-07 0.01124191 -0.08270264
v 0 1.000001 -0.1870918
v 0 1.000001 -0.07065582
v 0.07241297 1.204445 -0.07951736
v 0.07216239 1.175074 -0.1770058
v -0.1025379 1.282545 3.814697E-06
v -0.1027884 1.253174 -0.1152229
v 0.4948199 0.9978752 -0.3221817
v 0.4948199 -0.2742558 -0.3221817
v 0.4837983 1.13443 -0.3286972
v 0.4948199 0.9978752 -0.2057457
v 0.4948196 1.163866 -0.2057381
v 0.4948194 -0.1893673 -0.2177925

vt -0.01205237 0.08488911
vt -0.1164416 6.472879E-07
vt -5.559177E-06 1.000001
vt -0.1164416 1.000001
vt 0.1164355 0
vt 0.01204635 0.08488846
vt 0.1164355 1
vt -0.9893501 -0.1558936
vt -0.9760156 -0.2897792
vt -1.101437 -0.06527316
vt -1.088103 -0.1991587
vt -0.7811772 0.993663
vt -0.7743071 0.004854457
vt -0.9050797 0.9936621
vt -0.8982096 0.07849731
vt 0.7147793 -0.07364655
vt 0.7147793 1.000001
vt 0.8386818 0
vt 0.8386818 1
vt 1.240956 0.05722912
vt 1.250373 0.1586098
vt 1.437274 0.1214787
vt 1.44669 0.2399167
vt -0.01156903 -0.1914161
vt 0.001766447 -0.05753058
vt 0.1005186 -0.1007957
vt 0.1138541 0.0330898
vt 0.1066896 1.000001
vt 0.1066896 -0.07364655
vt -0.01721318 1
vt -0.01721318 0
vt -0.04675429 0.01055577
vt -0.03994421 0.9993647
vt 0.07714622 0.08420604
vt 0.08395632 0.9993712
vt -0.2865162 0.248608
vt -0.2780816 0.1471409
vt -0.4767285 0.3313746
vt -0.4682939 0.2128647
vt 0.8386818 0.9954907
vt 0.7147792 0.9954917
vt 0.838547 1.248669
vt 0.6546504 1.170896
vt 0.08361109 1.000087
vt -0.04029165 1.000088
vt 0.08423392 1.282632
vt -0.10483 1.20448
vt 0.1066899 0.9206038
vt -0.01721284 0.9206028
vt 0.1602174 1.102522
vt -0.0187311 1.164364
vt 0.1152229 1.253572
vt -3.814697E-06 1.282943
vt -0.7811763 0.8671694
vt -0.9050788 0.8671684
vt -0.7104485 1.075172
vt -0.9044604 1.14496
vt 0 0.9970502
vt -0.116436 0.9970502
vt 3.814697E-06 1.279596
vt -0.1152229 1.250226
vt 0.5622031 0.9978752
vt 0.0492743 1.000001
vt 0.5622031 -0.2742558
vt 0.0492743 -0.07364655
vt 0.3947938 -0.2742558
vt 0.9177242 -0.07364655
vt 0.3947938 0.9978752
vt 0.9177242 1.000001
vt 0.04915172 0.9576449
vt 0.5620804 0.9554908
vt 0.1161296 1.135053
vt 0.5531577 1.088763
vt 0.3947487 1.008635
vt 0.9176792 1.010761
vt 0.3824177 1.145233
vt 0.8428118 1.18501
vt -0.9478818 0.9790223
vt -0.4249513 0.9768928
vt -0.8683556 1.183822
vt -0.4249531 1.142595
vt -0.5315374 0.9978722
vt -0.01860859 0.999998
vt -0.5315351 1.163863
vt -0.09079888 1.204442
vt -0.424886 0.9946262
vt -0.9478164 0.996752
vt -0.4217739 -0.1926733
vt -0.9447044 0.007926437
vt -0.5344 -0.19016
vt -0.02147498 0.01045881
vt -0.5312723 0.9971395
vt -0.01834724 0.9992844
vt -0.5361776 -0.3643382
vt -0.01328595 -0.1913515
vt -0.5208631 -0.2306647
vt 0.002028528 -0.05767796
vt -0.9712214 -0.3018515
vt -0.4385298 -0.474883
vt -0.9862307 -0.1681433
vt -0.4535392 -0.3411748
vt 0.4953987 -0.05775105
vt 0.9317958 0.09819382
vt 0.5067212 0.06865586
vt 0.9323474 0.1998353
vt 0.08658051 0.169155
vt 0.4976865 0.01073098
vt 0.0871916 0.2709703
vt 0.5090684 0.1369151

vn 1 -5.874921E-07 5.045623E-06
vn -1 0 -4.567878E-06
vn 0.1224799 -0.7700095 0.6261662
vn -0.5702248 -0.01000781 0.8214278
vn -0.5675646 -0.0104346 0.8232563
vn -0.5649045 -0.01086138 0.8250849
vn 0.5702533 0 -0.821469
vn -0.3005131 0.9134442 -0.2744296
vn -0.2983043 0.9195805 -0.2548753
vn -0.2960955 0.9257168 -0.235321
vn -0.1224804 -0.77001 0.6261654
vn -0.5702524 0 -0.8214696
vn 0.5653064 -0.01004969 0.8248198
vn 0.5677627 -0.01043172 0.8231207
vn 0.5702191 -0.01081375 0.8214215
vn 0.2837421 0.9179346 -0.2772843
vn 0.3049493 0.9168949 -0.2557224
vn 0.3261566 0.9158552 -0.2341605
vn 0.5702423 0.006202138 -0.8214532
vn 0.4110116 0.08821244 -0.8870748
vn 0.2517809 0.1702227 -0.9526965
vn 0.5702517 0.001513809 0.8214687
vn 0.4736481 -0.0460467 0.8714607
vn 0.3770445 -0.0936072 0.9214526
vn -0.5487944 0.2717494 -0.7905549
vn -0.4402558 0.1374757 -0.8669641
vn -0.3317173 0.003201879 -0.9433734
vn -0.9999921 -0.003974023 0
vn -0.9999923 -0.003324061 0.001428131
vn -0.9999924 -0.0026741 0.002856261
vn -0.5604982 -0.1841855 0.8074141
vn -0.4811939 -0.0926363 0.8615508
vn -0.4018895 -0.001087048 0.9156875
vn 0.9999964 0.002674071 0
vn 0.9999917 0.003331683 -0.001595746
vn 0.9999869 0.003989294 -0.003191492
vn -0.2633696 0 -0.964695
vn 0.2583324 0 -0.9660561
vn -0.2592564 0.161717 -0.9521732
vn -0.3052213 0.04441661 -0.9428189
vn -0.3511862 -0.07288383 -0.9334646
vn 0.2583493 -0.02522608 -0.9657222
vn 0.2822638 0.08436172 -0.948865
vn 0.3061783 0.1939495 -0.9320078
vn -0.2576516 -0.05895137 0.9644378
vn -0.271102 -0.02949792 0.9615492
vn -0.2845525 -4.447138E-05 0.9586605
vn 0.2633695 -4.396175E-05 0.964695
vn 0.2720416 -0.02897264 0.9613693
vn 0.2807137 -0.05790131 0.9580435
vn -0.2582815 -0.00980199 0.96602
vn -0.2561132 -0.01079268 0.9665835
vn -0.2539449 -0.01178337 0.9671469
vn 0.2596582 -0.009798454 0.9656509
vn 0.2614813 -0.01077577 0.9651461
vn 0.2633044 -0.0117531 0.9646412
vn -0.1408803 -0.7681136 0.6246232
vn 0.1380463 -0.7684227 0.6248758
vn -0.009968688 0.9726737 -0.2319621
vn -0.007858664 0.9650752 -0.2602077
vn -0.005748639 0.9574767 -0.2884534
vn -0.01175297 0.9574307 -0.2884241
vn 0.005731866 0.9646077 -0.261574
vn 0.0232167 0.9717848 -0.2347239

g Cube
usemtl MaterialTestArmor
f 1/1/1 2/2/1 4/4/1 3/3/1
f 5/5/2 6/6/2 8/3/2 7/7/2
f 9/8/3 10/9/3 2/11/3 1/10/3
f 11/12/4 9/13/5 1/15/6 3/14/5
f 10/16/7 12/17/7 4/19/7 2/18/7
f 13/20/8 14/21/9 16/23/10 15/22/9
f 17/24/11 18/25/11 6/27/11 5/26/11
f 19/28/12 17/29/12 5/31/12 7/30/12
f 18/32/13 20/33/14 8/35/15 6/34/14
f 21/36/16 22/37/17 24/39/18 23/38/17
f 4/40/19 12/41/20 13/43/21 15/42/20
f 8/44/22 20/45/23 21/47/24 23/46/23
f 19/48/25 7/49/26 24/51/27 22/50/26
f 7/7/28 8/3/29 23/53/30 24/52/29
f 11/54/31 3/55/32 16/57/33 14/56/32
f 3/58/34 4/59/35 15/61/36 16/60/35
f 19/63/37 25/62/37 26/64/37 17/65/37
f 10/67/38 26/66/38 25/68/38 12/69/38
f 25/71/40 19/70/39 22/72/40 27/73/41
f 12/75/43 25/74/42 27/76/43 13/77/44
f 28/79/46 11/78/45 14/80/46 29/81/47
f 20/83/49 28/82/48 29/84/49 21/85/50
f 11/87/52 28/86/51 30/88/52 9/89/53
f 18/91/55 30/90/54 28/92/55 20/93/56
f 17/95/57 26/94/57 30/96/57 18/97/57
f 26/99/58 10/98/58 9/100/58 30/101/58
f 13/103/60 27/102/59 29/104/60 14/105/61
f 27/107/63 22/106/62 21/108/63 29/109/64

