# ProBuilder 4.0.5
# https://unity3d.com/unity/features/worldbuilding/probuilder
# 1/5/2021 1:19:50 a. m.

mtllib ./HealthPickupModel.mtl
o HealthPickupModel

g ItemLootHealth
v -0.3829717 -0.3829726 0.4999989
v 0.3829725 -0.3829726 0.4999989
v -0.3829717 0.3829716 0.4999989
v 0.3829725 0.3829716 0.4999989
v 1.516158 -0.3829726 0.3829748
v 1.516158 -0.3829726 -0.3829694
v 1.516158 0.3829716 0.3829748
v 1.516158 0.3829716 -0.3829694
v 0.3829725 -0.3829726 -0.5000011
v -0.3829717 -0.3829726 -0.5000011
v 0.3829725 0.3829716 -0.5000011
v -0.3829717 0.3829716 -0.5000011
v -1.516159 -0.3829726 -0.3829694
v -1.51616 -0.3829726 0.3829748
v -1.516159 0.3829716 -0.3829694
v -1.51616 0.3829716 0.3829748
v -0.3829717 1.499555 0.382971
v 0.3829725 1.499555 0.382971
v -0.3829717 1.499555 -0.3829732
v 0.3829725 1.499555 -0.3829732
v -0.3829717 -1.499553 -0.3829732
v 0.3829725 -1.499553 -0.3829732
v -0.3829717 -1.499552 0.382971
v 0.3829725 -1.499552 0.382971
v -0.3829717 0.6170275 0.4999989
v 0.3829725 0.6170275 0.4999989
v -0.3829717 1.382527 0.4999989
v 0.3829725 1.382527 0.4999989
v -0.4999997 0.6170275 -0.3829732
v -0.4999997 0.6170275 0.382971
v -0.4999997 1.382527 -0.3829732
v -0.4999997 1.382527 0.382971
v 0.5000004 0.6170275 0.382971
v 0.5000004 0.6170275 -0.3829732
v 0.5000004 1.382527 0.382971
v 0.5000004 1.382527 -0.3829732
v 0.3829725 0.6170275 -0.5000011
v -0.3829717 0.6170275 -0.5000011
v 0.3829725 1.382527 -0.5000011
v -0.3829717 1.382527 -0.5000011
v -0.3829717 -0.6170285 -0.5000011
v 0.3829725 -0.6170285 -0.5000011
v -0.3829717 -1.382525 -0.5000011
v 0.3829725 -1.382525 -0.5000011
v -0.4999997 -0.6170285 0.382971
v -0.4999997 -0.6170285 -0.3829732
v -0.4999997 -1.382524 0.382971
v -0.4999997 -1.382525 -0.3829732
v 0.5000004 -0.6170285 -0.3829732
v 0.5000004 -0.6170285 0.382971
v 0.5000004 -1.382525 -0.3829732
v 0.5000004 -1.382524 0.382971
v 0.3829725 -0.6170285 0.4999989
v -0.3829717 -0.6170285 0.4999989
v 0.3829725 -1.382524 0.4999989
v -0.3829717 -1.382524 0.4999989
v -0.6170276 -0.5000005 -0.3829727
v -0.6170276 -0.5000005 0.3829714
v -1.399132 -0.5000005 -0.3829697
v -1.399132 -0.5000005 0.3829744
v -0.6170276 0.3829716 -0.5000007
v -0.6170276 -0.3829726 -0.5000007
v -1.399132 0.3829716 -0.4999977
v -1.399132 -0.3829726 -0.4999977
v -0.6170276 -0.3829726 0.4999993
v -0.6170276 0.3829716 0.4999993
v -1.399132 -0.3829726 0.5000023
v -1.399132 0.3829716 0.5000023
v -0.6170276 0.4999995 0.3829714
v -0.6170276 0.4999995 -0.3829727
v -1.399132 0.4999995 0.3829744
v -1.399132 0.4999995 -0.3829697
v 0.6170284 -0.5000005 0.3829714
v 0.6170284 -0.5000005 -0.3829727
v 1.39913 -0.5000005 0.3829744
v 1.39913 -0.5000005 -0.3829697
v 0.6170284 0.3829716 0.4999993
v 0.6170284 -0.3829726 0.4999993
v 1.39913 0.3829716 0.5000023
v 1.39913 -0.3829726 0.5000023
v 0.6170284 -0.3829726 -0.5000007
v 0.6170284 0.3829716 -0.5000007
v 1.39913 -0.3829726 -0.4999977
v 1.39913 0.3829716 -0.4999977
v 0.6170284 0.4999995 -0.3829727
v 0.6170284 0.4999995 0.3829714
v 1.39913 0.4999995 -0.3829697
v 1.39913 0.4999995 0.3829744
v -0.4999997 -0.5000005 0.4531879
v 0.5000004 -0.5000005 0.4531879
v -0.4999997 0.4999994 0.4531879
v 0.5000004 0.4999995 0.4531879
v 0.5000003 -0.5000005 -0.4531898
v -0.4999997 -0.5000005 -0.4531898
v 0.5000004 0.4999994 -0.4531898
v -0.4999997 0.4999995 -0.4531898

vt -0.1170279 0.1170279
vt -0.8829721 0.1170279
vt -0.1170279 0.8829721
vt -0.8829721 0.8829721
vt 0.8829721 0.1170279
vt 0.1170279 0.1170279
vt 0.8829721 0.8829721
vt 0.1170279 0.8829721
vt 0.1170279 -0.1170279
vt 0.8829721 -0.1170279
vt 0.1170279 -0.8829721
vt 0.8829721 -0.8829721
vt -0.1170279 -0.882973
vt -0.8829721 -0.882973
vt -0.1170279 -0.1170289
vt -0.8829721 -0.1170289
vt -0.1170279 1.117028
vt -0.8829721 1.117028
vt -0.1170279 1.882528
vt -0.8829721 1.882528
vt 0.8829721 1.117028
vt 0.1170279 1.117028
vt 0.8829721 1.882528
vt 0.1170279 1.882528
vt 0.8991318 -0.8829687
vt 0.899132 -0.1170246
vt -0.8991281 0.8829721
vt -0.8991281 0.1170279
vt 0.8991321 0.1170279
vt 0.8991321 0.8829721
vt -0.899132 -0.1170246
vt -0.8991318 -0.8829687
vt -1.117028 -0.1170275
vt -1.117028 -0.8829716
vt -1.89913 -0.1170246
vt -1.89913 -0.8829687
vt -1.117028 0.8829721
vt -1.117028 0.1170279
vt -1.89913 0.8829721
vt -1.89913 0.1170279
vt 1.117024 0.1170279
vt 1.117024 0.8829721
vt 1.899126 0.1170279
vt 1.899126 0.8829721
vt 1.117028 -0.8829716
vt 1.117028 -0.1170275
vt 1.89913 -0.8829687
vt 1.89913 -0.1170246
vt 0.3829717 -0.3829726
vt -0.3829725 -0.3829726
vt 0.3829717 -0.6170285
vt -0.3829725 -0.6170285
vt 0.3829726 0.3829716
vt 0.6170285 0.3829716
vt 0.6170285 -0.3829726
vt -0.3829734 0.3829716
vt -0.6170292 -0.3829726
vt -0.6170292 0.3829716
vt -0.3829725 0.6170275
vt 0.3829717 0.6170275
vt -0.8012835 0.3829748
vt -0.8012835 -0.3829694
vt -0.6357809 0.3829744
vt -0.6357809 -0.3829697
vt 0.8012837 -0.3829726
vt 0.8012837 0.3829716
vt 0.6357809 -0.3829726
vt 0.6357809 0.3829716
vt 0.3829687 0.8012832
vt -0.3829755 0.8012832
vt 0.3829691 0.6357808
vt -0.382975 0.6357806
vt 0.3829717 0.7895445
vt -0.3829725 0.7895445
vt 0.3829717 0.624042
vt -0.3829725 0.624042
vt -0.3829717 -0.7895414
vt 0.3829725 -0.7895414
vt -0.3829717 -0.6240389
vt 0.3829725 -0.6240389
vt -0.08275072 1.382527
vt -0.08275072 0.6170275
vt 0.08275177 1.382527
vt 0.08275177 0.6170275
vt 0.3829732 0.08275124
vt -0.382971 0.08275124
vt 0.3829727 -0.08275132
vt -0.3829714 -0.08275132
vt 0.08275208 -1.382525
vt 0.08275208 -0.6170285
vt -0.08275037 -1.382525
vt -0.08275037 -0.6170285
vt -0.08275177 0.382971
vt -0.08275177 -0.3829732
vt 0.08275076 0.3829714
vt 0.08275076 -0.3829727
vt -1.39913 -0.08274951
vt -0.6170262 -0.08274951
vt -1.39913 0.082753
vt -0.6170257 0.08275304
vt 0.6170291 -0.08275385
vt 1.399133 -0.08275385
vt 0.6170295 0.08274863
vt 1.399134 0.08274865
vt 0.1698861 -0.3829726
vt 0.295929 -0.5000005
vt 0.1698861 -0.6170285
vt -0.08275073 -0.3241679
vt 0.03310091 -0.197043
vt 0.08275178 -0.3241679
vt 0.2317104 -0.2807391
vt 0.1955842 -0.1491304
vt 0.3320609 -0.1491304
vt 0.3320609 0.04085164
vt 0.1955842 0.04085165
vt 0.2718508 0.1950133
vt 0.6170285 -0.1698862
vt 0.5000005 -0.2959292
vt 0.3829726 -0.1698862
vt -0.1698868 -0.6170285
vt -0.2959297 -0.5000005
vt -0.1698868 -0.3829726
vt -0.3829734 -0.1698862
vt -0.5000013 -0.2959292
vt -0.6170292 -0.1698862
vt -0.2718512 0.1950136
vt -0.1955847 0.04085193
vt -0.3320614 0.04085193
vt -0.3320614 -0.1491302
vt -0.1955847 -0.1491302
vt -0.2317109 -0.2807389
vt -0.03310144 -0.1970428
vt 0.3829726 0.1698851
vt 0.5000005 0.2959279
vt 0.6170285 0.1698851
vt -0.3320611 -0.04085269
vt -0.1715002 -0.1025177
vt -0.271851 -0.1950143
vt 0.3320611 0.1491298
vt 0.1955843 0.1491297
vt 0.2317105 0.2807385
vt 0.08275177 0.3241673
vt 0.03310091 0.1970423
vt -0.08275072 0.3241673
vt 0.1698861 0.6170275
vt 0.295929 0.4999994
vt 0.1698861 0.3829716
vt -0.6170292 0.1698852
vt -0.5000013 0.2959281
vt -0.3829734 0.1698852
vt -0.1698868 0.3829716
vt -0.2959297 0.4999995
vt -0.1698868 0.6170275
vt -0.03310144 0.197042
vt -0.2317109 0.2807382
vt -0.1955847 0.1491294
vt -0.3320614 0.1491294
vt 0.2718513 -0.1950145
vt 0.1715005 -0.1025179
vt 0.3320614 -0.04085289
vt -0.8012845 0.4626223
vt -0.7185333 0.3192928
vt -0.6357822 0.4626223
vt 0.8012837 0.4626195
vt 0.7185323 0.3192902
vt 0.6357809 0.4626195
vt 0.8012871 -0.4626189
vt 0.7185356 -0.31929
vt 0.6357846 -0.4626194
vt -0.1714977 0.1025165
vt 0.4999996 -0.2959284
vt -0.499999 -0.2959284
vt 0.1714969 0.1025162
vt 0.4999997 0.2959271
vt -0.499999 0.2959273
vt -0.8012833 -0.4626211
vt -0.6357807 -0.4626211
vt -0.7185321 -0.3192919
vt 5.268356E-07 0.9116871
vt -0.08275072 0.7683577
vt 0.08275177 0.7683577
vt 1.146732E-06 -0.9116845
vt 0.08275237 -0.7683553
vt -0.08275008 -0.7683551

vn -0.07602163 -0.07602262 0.9942039
vn 0.07602163 -0.07602263 0.9942039
vn -0.07602163 0.07602269 0.9942039
vn 0.07602163 0.07602266 0.9942039
vn 0.8547629 -0.3670015 0.3670018
vn 0.8547637 -0.3670008 -0.3670006
vn 0.8547628 0.3670016 0.3670018
vn 0.8547637 0.3670009 -0.3670005
vn 0.07602338 -0.07602246 -0.9942037
vn -0.07602332 -0.07602245 -0.9942037
vn 0.07602332 0.07602252 -0.9942037
vn -0.07602332 0.07602249 -0.9942037
vn -0.854764 -0.3670003 -0.3670003
vn -0.854763 -0.3670014 0.3670016
vn -0.8547639 0.3670006 -0.3670002
vn -0.8547629 0.3670016 0.3670017
vn -0.3670011 0.8547633 0.3670011
vn 0.3670011 0.8547633 0.3670011
vn -0.3670011 0.8547633 -0.3670012
vn 0.3670011 0.8547633 -0.3670012
vn -0.3670012 -0.8547636 -0.3670006
vn 0.3670012 -0.8547636 -0.3670006
vn -0.3670011 -0.8547631 0.3670018
vn 0.3670011 -0.8547631 0.3670018
vn -0.3728262 0.08419697 0.9240733
vn 0.3728262 0.08419701 0.9240733
vn -0.367001 0.3670009 0.8547634
vn 0.367001 0.3670009 0.8547634
vn -0.8013416 0.3537728 -0.4823862
vn -0.801341 0.3537738 0.4823864
vn 0.8013411 0.3537738 0.4823864
vn 0.8013416 0.3537727 -0.4823863
vn 0.3728266 0.08419663 -0.9240732
vn -0.3728265 0.08419667 -0.9240732
vn 0.3670009 0.3670008 -0.8547636
vn -0.3670009 0.3670008 -0.8547636
vn -0.3728265 -0.08419671 -0.9240732
vn 0.3728266 -0.08419659 -0.9240732
vn -0.367001 -0.367001 -0.8547634
vn 0.367001 -0.367001 -0.8547634
vn -0.801341 -0.353774 0.4823863
vn -0.8013415 -0.3537729 -0.4823862
vn 0.8013415 -0.3537727 -0.4823863
vn 0.801341 -0.353774 0.4823864
vn 0.3728262 -0.08419705 0.9240733
vn -0.3728262 -0.08419705 0.9240733
vn 0.3670009 -0.3670007 0.8547636
vn -0.3670009 -0.3670007 0.8547636
vn -0.3537747 -0.8013409 -0.482386
vn -0.3537721 -0.8013417 0.4823865
vn -0.3669998 -0.8547639 0.3670013
vn -0.0841992 0.3728264 -0.924073
vn -0.08419921 -0.3728263 -0.924073
vn -0.08419442 -0.3728266 0.9240734
vn -0.08419435 0.3728268 0.9240733
vn -0.3669984 -0.3670014 0.8547644
vn -0.3669984 0.3670015 0.8547644
vn -0.3537721 0.8013418 0.4823865
vn -0.3537747 0.8013409 -0.4823859
vn -0.3669998 0.8547639 0.3670012
vn 0.3537722 -0.8013417 0.4823864
vn 0.3537745 -0.8013409 -0.482386
vn 0.3669997 -0.8547638 0.3670013
vn 0.08419444 0.3728267 0.9240733
vn 0.08419445 -0.3728266 0.9240734
vn 0.3669983 0.3670015 0.8547643
vn 0.3669984 -0.3670014 0.8547644
vn 0.08419914 -0.3728263 -0.924073
vn 0.08419915 0.3728265 -0.924073
vn 0.3537747 0.8013409 -0.4823859
vn 0.3537722 0.8013417 0.4823864
vn 0.3669997 0.854764 0.3670012
vn -0.395425 -0.395427 0.8290215
vn 0.3954251 -0.395427 0.8290215
vn -0.395425 0.3954269 0.8290215
vn 0.3954251 0.395427 0.8290214
vn 0.3954274 -0.3954256 -0.829021
vn -0.3954274 -0.3954257 -0.8290209
vn 0.3954273 0.3954256 -0.829021
vn -0.3954274 0.3954257 -0.829021

g ItemLootHealth
usemtl MaterialTestHealth
f 1/105/1 89/106/73 54/107/46
f 54/108/46 89/109/73 45/110/41
f 45/111/41 89/112/73 58/113/50
f 58/114/50 89/115/73 65/116/54
f 65/117/54 89/118/73 1/119/1
f 53/120/45 90/121/74 2/122/2
f 2/123/2 90/124/74 78/125/65
f 78/126/65 90/127/74 73/128/61
f 73/129/61 90/130/74 50/131/44
f 50/108/44 90/132/74 53/110/45
f 3/133/3 91/134/75 66/135/55
f 66/136/55 91/137/75 69/138/58
f 69/139/58 91/140/75 30/141/30
f 30/142/30 91/143/75 25/144/25
f 25/145/25 91/146/75 3/147/3
f 77/148/64 92/149/76 4/150/4
f 4/151/4 92/152/76 26/153/26
f 26/142/26 92/154/76 33/144/31
f 33/155/31 92/156/76 86/157/71
f 86/158/71 92/159/76 77/160/64
f 80/163/67 75/162/63 5/161/5
f 6/164/6 76/165/22 83/166/40
f 88/169/72 79/168/66 7/167/7
f 8/167/8 84/169/35 87/168/20
f 9/105/9 93/106/77 42/107/38
f 42/108/38 93/109/77 49/110/43
f 49/111/43 93/112/77 74/113/62
f 74/126/62 93/170/77 81/128/68
f 81/117/68 93/171/77 9/119/9
f 41/120/37 94/121/78 10/122/10
f 10/123/10 94/172/78 62/125/53
f 62/114/53 94/173/78 57/116/49
f 57/129/49 94/130/78 46/131/42
f 46/108/42 94/132/78 41/110/37
f 11/133/11 95/174/79 82/135/69
f 82/114/69 95/173/79 85/116/70
f 85/139/70 95/140/79 34/141/32
f 34/142/32 95/143/79 37/144/33
f 37/145/33 95/146/79 11/147/11
f 61/148/52 96/175/80 12/150/12
f 12/151/12 96/152/80 38/153/34
f 38/142/34 96/154/80 29/144/29
f 29/155/29 96/156/80 70/157/59
f 70/126/59 96/170/80 61/128/52
f 64/163/39 59/162/21 13/161/13
f 14/164/14 60/165/51 67/166/56
f 72/178/19 63/177/36 15/176/15
f 16/176/16 68/178/57 71/177/60
f 32/181/16 27/180/27 17/179/17
f 18/179/18 28/181/28 35/180/7
f 40/181/36 31/180/15 19/179/19
f 20/179/20 36/181/8 39/180/35
f 48/184/13 43/183/39 21/182/21
f 22/182/22 44/184/40 51/183/6
f 56/184/48 47/183/14 23/182/23
f 24/182/24 52/184/5 55/183/47
f 1/1/1 2/2/2 4/4/4
f 4/4/4 3/3/3 1/1/1
f 5/1/5 6/2/6 8/4/8
f 8/4/8 7/3/7 5/1/5
f 9/5/9 10/6/10 12/8/12
f 12/8/12 11/7/11 9/5/9
f 13/5/13 14/6/14 16/8/16
f 16/8/16 15/7/15 13/5/13
f 17/9/17 18/10/18 20/12/20
f 20/12/20 19/11/19 17/9/17
f 21/13/21 22/14/22 24/16/24
f 24/16/24 23/15/23 21/13/21
f 25/17/25 26/18/26 28/20/28
f 28/20/28 27/19/27 25/17/25
f 29/21/29 30/22/30 32/24/16
f 32/24/16 31/23/15 29/21/29
f 33/17/31 34/18/32 36/20/8
f 36/20/8 35/19/7 33/17/31
f 37/21/33 38/22/34 40/24/36
f 40/24/36 39/23/35 37/21/33
f 41/9/37 42/10/38 44/12/40
f 44/12/40 43/11/39 41/9/37
f 45/9/41 46/10/42 48/12/13
f 48/12/13 47/11/14 45/9/41
f 49/16/43 50/15/44 52/13/5
f 52/13/5 51/14/6 49/16/43
f 53/16/45 54/15/46 56/13/48
f 56/13/48 55/14/47 53/16/45
f 57/11/49 58/9/50 60/26/51
f 60/26/51 59/25/21 57/11/49
f 61/3/52 62/1/53 64/28/39
f 64/28/39 63/27/36 61/3/52
f 65/6/54 66/8/55 68/30/57
f 68/30/57 67/29/56 65/6/54
f 69/15/58 70/13/59 72/32/19
f 72/32/19 71/31/60 69/15/58
f 73/33/61 74/34/62 76/36/22
f 76/36/22 75/35/63 73/33/61
f 77/37/64 78/38/65 80/40/67
f 80/40/67 79/39/66 77/37/64
f 81/41/68 82/42/69 84/44/35
f 84/44/35 83/43/40 81/41/68
f 85/45/70 86/46/71 88/48/72
f 88/48/72 87/47/20 85/45/70
f 2/50/2 1/49/1 54/51/46
f 54/51/46 53/52/45 2/50/2
f 1/49/1 3/53/3 66/54/55
f 66/54/55 65/55/54 1/49/1
f 4/56/4 2/50/2 78/57/65
f 78/57/65 77/58/64 4/56/4
f 3/53/3 4/56/4 26/59/26
f 26/59/26 25/60/25 3/53/3
f 6/62/6 5/61/5 75/63/63
f 75/63/63 76/64/22 6/62/6
f 5/62/5 7/61/7 79/63/66
f 79/63/66 80/64/67 5/62/5
f 8/66/8 6/65/6 83/67/40
f 83/67/40 84/68/35 8/66/8
f 7/66/7 8/65/8 87/67/20
f 87/67/20 88/68/72 7/66/7
f 10/50/10 9/49/9 42/51/38
f 42/51/38 41/52/37 10/50/10
f 9/49/9 11/53/11 82/54/69
f 82/54/69 81/55/68 9/49/9
f 12/56/12 10/50/10 62/57/53
f 62/57/53 61/58/52 12/56/12
f 11/53/11 12/56/12 38/59/34
f 38/59/34 37/60/33 11/53/11
f 14/70/14 13/69/13 59/71/21
f 59/71/21 60/72/51 14/70/14
f 13/62/13 15/61/15 63/63/36
f 63/63/36 64/64/39 13/62/13
f 16/66/16 14/65/14 67/67/56
f 67/67/56 68/68/57 16/66/16
f 15/62/15 16/61/16 71/63/60
f 71/63/60 72/64/19 15/62/15
f 18/74/18 17/73/17 27/75/27
f 27/75/27 28/76/28 18/74/18
f 17/74/17 19/73/19 31/75/15
f 31/75/15 32/76/16 17/74/17
f 20/74/20 18/73/18 35/75/7
f 35/75/7 36/76/8 20/74/20
f 19/74/19 20/73/20 39/75/35
f 39/75/35 40/76/36 19/74/19
f 22/78/22 21/77/21 43/79/39
f 43/79/39 44/80/40 22/78/22
f 21/78/21 23/77/23 47/79/14
f 47/79/14 48/80/13 21/78/21
f 24/78/24 22/77/22 51/79/6
f 51/79/6 52/80/5 24/78/24
f 23/78/23 24/77/24 55/79/47
f 55/79/47 56/80/48 23/78/23
f 25/82/25 27/81/27 32/83/16
f 32/83/16 30/84/30 25/82/25
f 28/83/28 26/84/26 33/82/31
f 33/82/31 35/81/7 28/83/28
f 30/86/30 29/85/29 70/87/59
f 70/87/59 69/88/58 30/86/30
f 29/82/29 31/81/15 40/83/36
f 40/83/36 38/84/34 29/82/29
f 34/86/32 33/85/31 86/87/71
f 86/87/71 85/88/70 34/86/32
f 36/83/8 34/84/32 37/82/33
f 37/82/33 39/81/35 36/83/8
f 41/90/37 43/89/39 48/91/13
f 48/91/13 46/92/42 41/90/37
f 44/91/40 42/92/38 49/90/43
f 49/90/43 51/89/6 44/91/40
f 46/94/42 45/93/41 58/95/50
f 58/95/50 57/96/49 46/94/42
f 45/90/41 47/89/14 56/91/48
f 56/91/48 54/92/46 45/90/41
f 50/95/44 49/96/43 74/94/62
f 74/94/62 73/93/61 50/95/44
f 52/91/5 50/92/44 53/90/45
f 53/90/45 55/89/47 52/91/5
f 57/98/49 59/97/21 64/99/39
f 64/99/39 62/100/53 57/98/49
f 60/102/51 58/101/50 65/103/54
f 65/103/54 67/104/56 60/102/51
f 61/98/52 63/97/36 72/99/19
f 72/99/19 70/100/59 61/98/52
f 68/99/57 66/100/55 69/98/58
f 69/98/58 71/97/60 68/99/57
f 73/98/61 75/97/63 80/99/67
f 80/99/67 78/100/65 73/98/61
f 76/99/22 74/100/62 81/98/68
f 81/98/68 83/97/40 76/99/22
f 77/103/64 79/104/66 88/102/72
f 88/102/72 86/101/71 77/103/64
f 84/102/35 82/101/69 85/103/70
f 85/103/70 87/104/20 84/102/35

